<mxfile host="app.diagrams.net" modified="2023-02-26T07:50:24.265Z" agent="5.0 (Macintosh; Intel Mac OS X 10_15_7) AppleWebKit/537.36 (KHTML, like Gecko) Chrome/110.0.0.0 Safari/537.36 Edg/110.0.1587.50" etag="2Y4rVYqYfY9vKBaLIch7" version="20.8.23" type="github">
  <diagram name="第 1 页" id="P_K9snZ8IiYl-7qnJiqp">
    <mxGraphModel dx="1974" dy="1841" grid="1" gridSize="10" guides="1" tooltips="1" connect="1" arrows="1" fold="1" page="1" pageScale="1" pageWidth="827" pageHeight="1169" math="0" shadow="0">
      <root>
        <mxCell id="0" />
        <mxCell id="1" parent="0" />
        <mxCell id="_mhppMk-Uhb12QM0eEQ9-42" style="edgeStyle=orthogonalEdgeStyle;rounded=0;orthogonalLoop=1;jettySize=auto;html=1;exitX=0.5;exitY=1;exitDx=0;exitDy=0;" edge="1" parent="1" source="_mhppMk-Uhb12QM0eEQ9-2" target="_mhppMk-Uhb12QM0eEQ9-3">
          <mxGeometry relative="1" as="geometry" />
        </mxCell>
        <mxCell id="_mhppMk-Uhb12QM0eEQ9-2" value="&lt;p style=&quot;margin: 0px; font-variant-numeric: normal; font-variant-east-asian: normal; font-stretch: normal; font-size: 13px; line-height: normal; font-family: &amp;quot;Helvetica Neue&amp;quot;; text-align: start;&quot; class=&quot;p1&quot;&gt;NewSharedIndexInformer()&lt;/p&gt;" style="rounded=1;whiteSpace=wrap;html=1;" vertex="1" parent="1">
          <mxGeometry x="110" y="70" width="190" height="60" as="geometry" />
        </mxCell>
        <mxCell id="_mhppMk-Uhb12QM0eEQ9-43" style="edgeStyle=orthogonalEdgeStyle;rounded=0;orthogonalLoop=1;jettySize=auto;html=1;exitX=1;exitY=0.5;exitDx=0;exitDy=0;" edge="1" parent="1" source="_mhppMk-Uhb12QM0eEQ9-3" target="_mhppMk-Uhb12QM0eEQ9-4">
          <mxGeometry relative="1" as="geometry" />
        </mxCell>
        <mxCell id="_mhppMk-Uhb12QM0eEQ9-44" value="go run" style="edgeLabel;html=1;align=center;verticalAlign=middle;resizable=0;points=[];" vertex="1" connectable="0" parent="_mhppMk-Uhb12QM0eEQ9-43">
          <mxGeometry x="-0.1667" y="3" relative="1" as="geometry">
            <mxPoint as="offset" />
          </mxGeometry>
        </mxCell>
        <mxCell id="_mhppMk-Uhb12QM0eEQ9-45" style="edgeStyle=orthogonalEdgeStyle;rounded=0;orthogonalLoop=1;jettySize=auto;html=1;exitX=0.5;exitY=1;exitDx=0;exitDy=0;" edge="1" parent="1" source="_mhppMk-Uhb12QM0eEQ9-3" target="_mhppMk-Uhb12QM0eEQ9-5">
          <mxGeometry relative="1" as="geometry" />
        </mxCell>
        <mxCell id="_mhppMk-Uhb12QM0eEQ9-46" value="go run" style="edgeLabel;html=1;align=center;verticalAlign=middle;resizable=0;points=[];" vertex="1" connectable="0" parent="_mhppMk-Uhb12QM0eEQ9-45">
          <mxGeometry x="-0.02" relative="1" as="geometry">
            <mxPoint as="offset" />
          </mxGeometry>
        </mxCell>
        <mxCell id="_mhppMk-Uhb12QM0eEQ9-3" value="&lt;p style=&quot;margin: 0px; font-variant-numeric: normal; font-variant-east-asian: normal; font-stretch: normal; font-size: 13px; line-height: normal; font-family: &amp;quot;Helvetica Neue&amp;quot;; text-align: start;&quot; class=&quot;p1&quot;&gt;sharedIndexInformer.Run()&lt;/p&gt;" style="rounded=1;whiteSpace=wrap;html=1;" vertex="1" parent="1">
          <mxGeometry x="110" y="190" width="190" height="60" as="geometry" />
        </mxCell>
        <mxCell id="_mhppMk-Uhb12QM0eEQ9-40" style="edgeStyle=orthogonalEdgeStyle;rounded=0;orthogonalLoop=1;jettySize=auto;html=1;exitX=0.5;exitY=0;exitDx=0;exitDy=0;entryX=0.5;entryY=1;entryDx=0;entryDy=0;" edge="1" parent="1" source="_mhppMk-Uhb12QM0eEQ9-4" target="_mhppMk-Uhb12QM0eEQ9-34">
          <mxGeometry relative="1" as="geometry" />
        </mxCell>
        <mxCell id="_mhppMk-Uhb12QM0eEQ9-41" value="Call" style="edgeLabel;html=1;align=center;verticalAlign=middle;resizable=0;points=[];" vertex="1" connectable="0" parent="_mhppMk-Uhb12QM0eEQ9-40">
          <mxGeometry x="0.0333" y="3" relative="1" as="geometry">
            <mxPoint as="offset" />
          </mxGeometry>
        </mxCell>
        <mxCell id="_mhppMk-Uhb12QM0eEQ9-4" value="&lt;p style=&quot;margin: 0px; font-variant-numeric: normal; font-variant-east-asian: normal; font-stretch: normal; font-size: 13px; line-height: normal; font-family: &amp;quot;Helvetica Neue&amp;quot;; text-align: start;&quot; class=&quot;p1&quot;&gt;s.processor.run()&lt;/p&gt;" style="rounded=1;whiteSpace=wrap;html=1;" vertex="1" parent="1">
          <mxGeometry x="420" y="190" width="190" height="60" as="geometry" />
        </mxCell>
        <mxCell id="_mhppMk-Uhb12QM0eEQ9-47" style="edgeStyle=orthogonalEdgeStyle;rounded=0;orthogonalLoop=1;jettySize=auto;html=1;exitX=0.5;exitY=1;exitDx=0;exitDy=0;entryX=0.5;entryY=0;entryDx=0;entryDy=0;" edge="1" parent="1" source="_mhppMk-Uhb12QM0eEQ9-5" target="_mhppMk-Uhb12QM0eEQ9-6">
          <mxGeometry relative="1" as="geometry" />
        </mxCell>
        <mxCell id="_mhppMk-Uhb12QM0eEQ9-5" value="&lt;p style=&quot;margin: 0px; font-variant-numeric: normal; font-variant-east-asian: normal; font-stretch: normal; font-size: 13px; line-height: normal; font-family: &amp;quot;Helvetica Neue&amp;quot;; text-align: start;&quot; class=&quot;p1&quot;&gt;s.controller.run()&lt;/p&gt;" style="rounded=1;whiteSpace=wrap;html=1;" vertex="1" parent="1">
          <mxGeometry x="110" y="350" width="190" height="60" as="geometry" />
        </mxCell>
        <mxCell id="_mhppMk-Uhb12QM0eEQ9-48" style="edgeStyle=orthogonalEdgeStyle;rounded=0;orthogonalLoop=1;jettySize=auto;html=1;exitX=1;exitY=0.5;exitDx=0;exitDy=0;" edge="1" parent="1" source="_mhppMk-Uhb12QM0eEQ9-6" target="_mhppMk-Uhb12QM0eEQ9-8">
          <mxGeometry relative="1" as="geometry" />
        </mxCell>
        <mxCell id="_mhppMk-Uhb12QM0eEQ9-49" value="go run" style="edgeLabel;html=1;align=center;verticalAlign=middle;resizable=0;points=[];" vertex="1" connectable="0" parent="_mhppMk-Uhb12QM0eEQ9-48">
          <mxGeometry x="-0.1833" y="1" relative="1" as="geometry">
            <mxPoint as="offset" />
          </mxGeometry>
        </mxCell>
        <mxCell id="_mhppMk-Uhb12QM0eEQ9-50" style="edgeStyle=orthogonalEdgeStyle;rounded=0;orthogonalLoop=1;jettySize=auto;html=1;exitX=0.5;exitY=1;exitDx=0;exitDy=0;" edge="1" parent="1" source="_mhppMk-Uhb12QM0eEQ9-6" target="_mhppMk-Uhb12QM0eEQ9-7">
          <mxGeometry relative="1" as="geometry" />
        </mxCell>
        <mxCell id="_mhppMk-Uhb12QM0eEQ9-51" value="go run" style="edgeLabel;html=1;align=center;verticalAlign=middle;resizable=0;points=[];" vertex="1" connectable="0" parent="_mhppMk-Uhb12QM0eEQ9-50">
          <mxGeometry x="-0.0857" y="-2" relative="1" as="geometry">
            <mxPoint as="offset" />
          </mxGeometry>
        </mxCell>
        <mxCell id="_mhppMk-Uhb12QM0eEQ9-6" value="&lt;p style=&quot;margin: 0px; font-variant-numeric: normal; font-variant-east-asian: normal; font-stretch: normal; font-size: 13px; line-height: normal; font-family: &amp;quot;Helvetica Neue&amp;quot;; text-align: start;&quot; class=&quot;p1&quot;&gt;c.Run()&lt;/p&gt;" style="rounded=1;whiteSpace=wrap;html=1;" vertex="1" parent="1">
          <mxGeometry x="110" y="490" width="190" height="60" as="geometry" />
        </mxCell>
        <mxCell id="_mhppMk-Uhb12QM0eEQ9-52" style="edgeStyle=orthogonalEdgeStyle;rounded=0;orthogonalLoop=1;jettySize=auto;html=1;exitX=0.5;exitY=1;exitDx=0;exitDy=0;" edge="1" parent="1" source="_mhppMk-Uhb12QM0eEQ9-7" target="_mhppMk-Uhb12QM0eEQ9-9">
          <mxGeometry relative="1" as="geometry" />
        </mxCell>
        <mxCell id="_mhppMk-Uhb12QM0eEQ9-7" value="&lt;p style=&quot;margin: 0px; font-variant-numeric: normal; font-variant-east-asian: normal; font-stretch: normal; font-size: 13px; line-height: normal; font-family: &amp;quot;Helvetica Neue&amp;quot;; text-align: start;&quot; class=&quot;p1&quot;&gt;c.r.run()&lt;/p&gt;" style="rounded=1;whiteSpace=wrap;html=1;" vertex="1" parent="1">
          <mxGeometry x="110" y="620" width="190" height="60" as="geometry" />
        </mxCell>
        <mxCell id="_mhppMk-Uhb12QM0eEQ9-25" style="edgeStyle=orthogonalEdgeStyle;rounded=0;orthogonalLoop=1;jettySize=auto;html=1;exitX=0.5;exitY=1;exitDx=0;exitDy=0;" edge="1" parent="1" source="_mhppMk-Uhb12QM0eEQ9-8" target="_mhppMk-Uhb12QM0eEQ9-14">
          <mxGeometry relative="1" as="geometry" />
        </mxCell>
        <mxCell id="_mhppMk-Uhb12QM0eEQ9-8" value="&lt;p style=&quot;margin: 0px; font-variant-numeric: normal; font-variant-east-asian: normal; font-stretch: normal; font-size: 13px; line-height: normal; font-family: &amp;quot;Helvetica Neue&amp;quot;; text-align: start;&quot; class=&quot;p1&quot;&gt;c.processLoop()&lt;/p&gt;" style="rounded=1;whiteSpace=wrap;html=1;" vertex="1" parent="1">
          <mxGeometry x="420" y="490" width="190" height="60" as="geometry" />
        </mxCell>
        <mxCell id="_mhppMk-Uhb12QM0eEQ9-12" style="edgeStyle=orthogonalEdgeStyle;rounded=0;orthogonalLoop=1;jettySize=auto;html=1;exitX=1;exitY=0.5;exitDx=0;exitDy=0;" edge="1" parent="1" source="_mhppMk-Uhb12QM0eEQ9-9" target="_mhppMk-Uhb12QM0eEQ9-11">
          <mxGeometry relative="1" as="geometry" />
        </mxCell>
        <mxCell id="_mhppMk-Uhb12QM0eEQ9-9" value="&lt;p style=&quot;margin: 0px; font-variant-numeric: normal; font-variant-east-asian: normal; font-stretch: normal; font-size: 13px; line-height: normal; font-family: &amp;quot;Helvetica Neue&amp;quot;; text-align: start;&quot; class=&quot;p1&quot;&gt;r.ListAndWatch()&lt;/p&gt;" style="rounded=1;whiteSpace=wrap;html=1;" vertex="1" parent="1">
          <mxGeometry x="110" y="740" width="190" height="60" as="geometry" />
        </mxCell>
        <mxCell id="_mhppMk-Uhb12QM0eEQ9-26" style="edgeStyle=orthogonalEdgeStyle;rounded=0;orthogonalLoop=1;jettySize=auto;html=1;exitX=0.5;exitY=0;exitDx=0;exitDy=0;exitPerimeter=0;entryX=0.5;entryY=1;entryDx=0;entryDy=0;" edge="1" parent="1" source="_mhppMk-Uhb12QM0eEQ9-11" target="_mhppMk-Uhb12QM0eEQ9-14">
          <mxGeometry relative="1" as="geometry" />
        </mxCell>
        <mxCell id="_mhppMk-Uhb12QM0eEQ9-31" value="PopQueue" style="edgeLabel;html=1;align=center;verticalAlign=middle;resizable=0;points=[];" vertex="1" connectable="0" parent="_mhppMk-Uhb12QM0eEQ9-26">
          <mxGeometry y="1" relative="1" as="geometry">
            <mxPoint as="offset" />
          </mxGeometry>
        </mxCell>
        <mxCell id="_mhppMk-Uhb12QM0eEQ9-11" value="DeltaFIFO" style="shape=cylinder3;whiteSpace=wrap;html=1;boundedLbl=1;backgroundOutline=1;size=15;" vertex="1" parent="1">
          <mxGeometry x="455" y="730" width="120" height="80" as="geometry" />
        </mxCell>
        <mxCell id="_mhppMk-Uhb12QM0eEQ9-53" style="edgeStyle=orthogonalEdgeStyle;rounded=0;orthogonalLoop=1;jettySize=auto;html=1;exitX=1;exitY=0.5;exitDx=0;exitDy=0;" edge="1" parent="1" source="_mhppMk-Uhb12QM0eEQ9-13" target="_mhppMk-Uhb12QM0eEQ9-9">
          <mxGeometry relative="1" as="geometry" />
        </mxCell>
        <mxCell id="_mhppMk-Uhb12QM0eEQ9-54" value="List/Watch" style="edgeLabel;html=1;align=center;verticalAlign=middle;resizable=0;points=[];" vertex="1" connectable="0" parent="_mhppMk-Uhb12QM0eEQ9-53">
          <mxGeometry x="-0.2" y="-1" relative="1" as="geometry">
            <mxPoint as="offset" />
          </mxGeometry>
        </mxCell>
        <mxCell id="_mhppMk-Uhb12QM0eEQ9-13" value="APIServer" style="ellipse;whiteSpace=wrap;html=1;aspect=fixed;" vertex="1" parent="1">
          <mxGeometry x="-100" y="725" width="90" height="90" as="geometry" />
        </mxCell>
        <mxCell id="_mhppMk-Uhb12QM0eEQ9-28" style="edgeStyle=orthogonalEdgeStyle;rounded=0;orthogonalLoop=1;jettySize=auto;html=1;exitX=1;exitY=0.5;exitDx=0;exitDy=0;entryX=0;entryY=0.5;entryDx=0;entryDy=0;" edge="1" parent="1" source="_mhppMk-Uhb12QM0eEQ9-14" target="_mhppMk-Uhb12QM0eEQ9-21">
          <mxGeometry relative="1" as="geometry" />
        </mxCell>
        <mxCell id="_mhppMk-Uhb12QM0eEQ9-30" style="edgeStyle=orthogonalEdgeStyle;rounded=0;orthogonalLoop=1;jettySize=auto;html=1;exitX=1;exitY=0.5;exitDx=0;exitDy=0;" edge="1" parent="1" source="_mhppMk-Uhb12QM0eEQ9-14" target="_mhppMk-Uhb12QM0eEQ9-27">
          <mxGeometry relative="1" as="geometry" />
        </mxCell>
        <mxCell id="_mhppMk-Uhb12QM0eEQ9-14" value="&lt;p style=&quot;margin: 0px; font-variant-numeric: normal; font-variant-east-asian: normal; font-stretch: normal; font-size: 13px; line-height: normal; font-family: &amp;quot;Helvetica Neue&amp;quot;; text-align: start;&quot; class=&quot;p1&quot;&gt;c.processor.handler()&lt;br&gt;s.HandlerDeltas()&lt;/p&gt;" style="rounded=1;whiteSpace=wrap;html=1;" vertex="1" parent="1">
          <mxGeometry x="420" y="620" width="190" height="60" as="geometry" />
        </mxCell>
        <mxCell id="_mhppMk-Uhb12QM0eEQ9-17" value="Indexer" style="shape=cylinder3;whiteSpace=wrap;html=1;boundedLbl=1;backgroundOutline=1;size=15;" vertex="1" parent="1">
          <mxGeometry x="1030" y="730" width="120" height="80" as="geometry" />
        </mxCell>
        <mxCell id="_mhppMk-Uhb12QM0eEQ9-29" style="edgeStyle=orthogonalEdgeStyle;rounded=0;orthogonalLoop=1;jettySize=auto;html=1;exitX=1;exitY=0.5;exitDx=0;exitDy=0;" edge="1" parent="1" source="_mhppMk-Uhb12QM0eEQ9-21" target="_mhppMk-Uhb12QM0eEQ9-17">
          <mxGeometry relative="1" as="geometry" />
        </mxCell>
        <mxCell id="_mhppMk-Uhb12QM0eEQ9-21" value="&lt;p style=&quot;margin: 0px; font-variant-numeric: normal; font-variant-east-asian: normal; font-stretch: normal; font-size: 13px; line-height: normal; font-family: &amp;quot;Helvetica Neue&amp;quot;; text-align: start;&quot; class=&quot;p1&quot;&gt;s.indexer.Add()/Update()...&lt;/p&gt;" style="rounded=1;whiteSpace=wrap;html=1;" vertex="1" parent="1">
          <mxGeometry x="720" y="740" width="190" height="60" as="geometry" />
        </mxCell>
        <mxCell id="_mhppMk-Uhb12QM0eEQ9-33" style="edgeStyle=orthogonalEdgeStyle;rounded=0;orthogonalLoop=1;jettySize=auto;html=1;exitX=0.5;exitY=0;exitDx=0;exitDy=0;" edge="1" parent="1" source="_mhppMk-Uhb12QM0eEQ9-27" target="_mhppMk-Uhb12QM0eEQ9-32">
          <mxGeometry relative="1" as="geometry" />
        </mxCell>
        <mxCell id="_mhppMk-Uhb12QM0eEQ9-37" value="&lt;p style=&quot;margin: 0px; font-variant-numeric: normal; font-variant-east-asian: normal; font-stretch: normal; font-size: 13px; line-height: normal; font-family: &amp;quot;Helvetica Neue&amp;quot;; text-align: start;&quot; class=&quot;p1&quot;&gt;nextChan &amp;lt;- notification&lt;/p&gt;" style="edgeLabel;html=1;align=center;verticalAlign=middle;resizable=0;points=[];" vertex="1" connectable="0" parent="_mhppMk-Uhb12QM0eEQ9-33">
          <mxGeometry x="0.16" y="-2" relative="1" as="geometry">
            <mxPoint as="offset" />
          </mxGeometry>
        </mxCell>
        <mxCell id="_mhppMk-Uhb12QM0eEQ9-27" value="&lt;p style=&quot;margin: 0px; font-variant-numeric: normal; font-variant-east-asian: normal; font-stretch: normal; font-size: 13px; line-height: normal; font-family: &amp;quot;Helvetica Neue&amp;quot;; text-align: start;&quot; class=&quot;p1&quot;&gt;s.processor.distribute()&lt;/p&gt;" style="rounded=1;whiteSpace=wrap;html=1;" vertex="1" parent="1">
          <mxGeometry x="720" y="620" width="190" height="60" as="geometry" />
        </mxCell>
        <mxCell id="_mhppMk-Uhb12QM0eEQ9-36" style="edgeStyle=orthogonalEdgeStyle;rounded=0;orthogonalLoop=1;jettySize=auto;html=1;exitX=0.5;exitY=0;exitDx=0;exitDy=0;exitPerimeter=0;entryX=1;entryY=0.5;entryDx=0;entryDy=0;" edge="1" parent="1" source="_mhppMk-Uhb12QM0eEQ9-32" target="_mhppMk-Uhb12QM0eEQ9-4">
          <mxGeometry relative="1" as="geometry" />
        </mxCell>
        <mxCell id="_mhppMk-Uhb12QM0eEQ9-38" value="&amp;lt;- nextChan" style="edgeLabel;html=1;align=center;verticalAlign=middle;resizable=0;points=[];" vertex="1" connectable="0" parent="_mhppMk-Uhb12QM0eEQ9-36">
          <mxGeometry x="0.0085" relative="1" as="geometry">
            <mxPoint as="offset" />
          </mxGeometry>
        </mxCell>
        <mxCell id="_mhppMk-Uhb12QM0eEQ9-32" value="" style="shape=cylinder3;whiteSpace=wrap;html=1;boundedLbl=1;backgroundOutline=1;size=15;" vertex="1" parent="1">
          <mxGeometry x="785" y="320" width="60" height="100" as="geometry" />
        </mxCell>
        <mxCell id="_mhppMk-Uhb12QM0eEQ9-35" style="edgeStyle=orthogonalEdgeStyle;rounded=0;orthogonalLoop=1;jettySize=auto;html=1;exitX=0;exitY=0.5;exitDx=0;exitDy=0;entryX=1;entryY=0.5;entryDx=0;entryDy=0;" edge="1" parent="1" source="_mhppMk-Uhb12QM0eEQ9-34" target="_mhppMk-Uhb12QM0eEQ9-2">
          <mxGeometry relative="1" as="geometry" />
        </mxCell>
        <mxCell id="_mhppMk-Uhb12QM0eEQ9-39" value="Regist" style="edgeLabel;html=1;align=center;verticalAlign=middle;resizable=0;points=[];" vertex="1" connectable="0" parent="_mhppMk-Uhb12QM0eEQ9-35">
          <mxGeometry y="1" relative="1" as="geometry">
            <mxPoint as="offset" />
          </mxGeometry>
        </mxCell>
        <mxCell id="_mhppMk-Uhb12QM0eEQ9-34" value="&lt;p style=&quot;margin: 0px; font-variant-numeric: normal; font-variant-east-asian: normal; font-stretch: normal; font-size: 13px; line-height: normal; font-family: &amp;quot;Helvetica Neue&amp;quot;; text-align: start;&quot; class=&quot;p1&quot;&gt;EventHandlers&lt;/p&gt;" style="rounded=1;whiteSpace=wrap;html=1;" vertex="1" parent="1">
          <mxGeometry x="420" y="70" width="190" height="60" as="geometry" />
        </mxCell>
        <mxCell id="_mhppMk-Uhb12QM0eEQ9-58" value="" style="shape=cylinder3;whiteSpace=wrap;html=1;boundedLbl=1;backgroundOutline=1;size=15;" vertex="1" parent="1">
          <mxGeometry x="785" y="370" width="60" height="50" as="geometry" />
        </mxCell>
        <mxCell id="_mhppMk-Uhb12QM0eEQ9-59" value="nextCh" style="shape=cylinder3;whiteSpace=wrap;html=1;boundedLbl=1;backgroundOutline=1;size=15;" vertex="1" parent="1">
          <mxGeometry x="785" y="350" width="60" height="50" as="geometry" />
        </mxCell>
        <mxCell id="_mhppMk-Uhb12QM0eEQ9-60" value="参考：&amp;nbsp;&lt;a href=&quot;https://cloud.tencent.com/developer/article/1876841&quot;&gt;浅谈 K8s Informer - 腾讯云开发者社区-腾讯云 (tencent.com)&lt;/a&gt;" style="text;html=1;strokeColor=none;fillColor=none;align=center;verticalAlign=middle;whiteSpace=wrap;rounded=0;" vertex="1" parent="1">
          <mxGeometry x="-110" y="960" width="490" height="90" as="geometry" />
        </mxCell>
        <mxCell id="_mhppMk-Uhb12QM0eEQ9-62" style="edgeStyle=orthogonalEdgeStyle;rounded=0;orthogonalLoop=1;jettySize=auto;html=1;exitX=0.5;exitY=1;exitDx=0;exitDy=0;" edge="1" parent="1" source="_mhppMk-Uhb12QM0eEQ9-61" target="_mhppMk-Uhb12QM0eEQ9-2">
          <mxGeometry relative="1" as="geometry" />
        </mxCell>
        <mxCell id="_mhppMk-Uhb12QM0eEQ9-61" value="Start" style="ellipse;whiteSpace=wrap;html=1;aspect=fixed;" vertex="1" parent="1">
          <mxGeometry x="165" y="-70" width="80" height="80" as="geometry" />
        </mxCell>
      </root>
    </mxGraphModel>
  </diagram>
</mxfile>
